<svg xmlns="http://www.w3.org/2000/svg" viewBox="0 0 595.28 595.28"><defs><style>.cls-1,.cls-3{fill:none;}.cls-1,.cls-2,.cls-3,.cls-4,.cls-5{stroke:#000;stroke-miterlimit:10;}.cls-1,.cls-3,.cls-4{stroke-linecap:round;}.cls-1{stroke-width:10px;}.cls-2{fill:#fc0;stroke-width:9px;}.cls-3,.cls-4,.cls-5{stroke-width:5px;}.cls-4{fill:#117000;}.cls-5{fill:#5ba300;}</style></defs><title>BOX CO-WORKING LOGO - SVG</title><g id="B"><path class="cls-1" d="M412.69,352.2a42.67,42.67,0,0,1,12.48,30.48V510.24H85V170.11H255.09c39.09,0,65.8,11.12,97.25,40.9"/></g><g id="lightbulb"><path class="cls-2" d="M327.31,305.53,289.37,268a6.26,6.26,0,0,0-8.77,0l-23.83,23.57a31,31,0,0,1-24.77,8.8,71.12,71.12,0,0,0-10.14-.28c-36.37,1.61-65.7,31.15-66.66,67.13-1.06,39.6,31.6,71.93,71.64,70.92,36.4-.91,66.3-29.88,68-65.84a70.29,70.29,0,0,0-.26-10,30.34,30.34,0,0,1,8.93-24.57l23.83-23.56A6.08,6.08,0,0,0,327.31,305.53Z"/><g id="Layer_8" data-name="Layer 8"><path class="cls-3" d="M340.72,257.5a162.39,162.39,0,0,0-32.52,29.14c-3.14-2.62-7.42-2.68-10-.5-3.3,2.82-2,7.89-1.89,8.12a7.92,7.92,0,0,0,2.48,4,8,8,0,0,0,4.24,1.85c.14,0,2.25-.5,2.68-2,.35-1.3-.74-2.51-1.29-3.13-3.43-3.82-9.89-2.82-10.23-2.77a10.25,10.25,0,0,0-6.27,3,9.38,9.38,0,0,0-2.2,4.59,9.84,9.84,0,0,0,1.52,7.25,8.69,8.69,0,0,0,2.64,2.38c1.58.79,3.12.8,3.87,0a2.76,2.76,0,0,0,.35-2.74c-1.25-3.2-9.88-5.59-14.74-1.47-3.73,3.15-4.45,9.39-2.07,12.55.72,1,2.53,2.71,4.27,2.19a3,3,0,0,0,2-2.67c.07-1.88-2.09-3.13-3.22-3.78s-4.28-2.22-7.69-.93a8.79,8.79,0,0,0-4.91,4.93c-.94,2.27-2.77,19-3.28,21.42-5.18,24.48-21,40.3-62.85,49.23"/></g></g><g id="leaves"><path id="canh" class="cls-3" d="M340.72,257.5c23.53-17.54,40.79-39,54.64-59.05"/><path class="cls-4" d="M339.89,256c-1.18-6-6.14-32.46-5.88-53.54.26-20.76,8.58-60.52,4.77-73.39a.23.23,0,0,1,.39-.21c14.29,16.82,27.5,37.91,30.76,58.4C374,212.61,361.25,234.8,339.89,256Z"/><path class="cls-5" d="M339.89,256l-.77.77c-14.59-17-30.31-36.66-26.43-61.68,4.78-30.84,17.26-34.34,25.46-66.24a.29.29,0,0,1,.55,0c4,12.58-4.43,52.74-4.69,73.64C333.75,223.5,338.71,250,339.89,256Z"/><path class="cls-5" d="M506.31,90s.05,0,0,0c-8.13,16.4-2.27,44.12-14.35,66.7-4.25,7.94-8.82,15.49-24.38,26.35-26.23,15.69-60.95,16.87-71.67,15.49a.23.23,0,0,1-.1-.41c18-11.89,57.78-45.18,74.44-59.71C485.37,125.29,497.56,103.59,506.31,90Z"/><path class="cls-4" d="M507.19,87.72a.28.28,0,0,1,.45.33c-6.14,9.75-24.5,39.18-37.35,50.37-16.68,14.54-56.52,47.9-74.5,59.75a.29.29,0,0,1-.44-.25c-.09-22.55,11.94-46.17,34.72-64.37C452.19,115.88,478.34,119.45,507.19,87.72Z"/></g></svg>